<?xml version="1.0" encoding="UTF-8"?>
<svg xmlns="http://www.w3.org/2000/svg" viewBox="0 0 16 16" width="16" height="16">
  <defs>
    <linearGradient id="cloudGrad" x1="0%" y1="0%" x2="100%" y2="100%">
      <stop offset="0%" style="stop-color:#42A5F5"/>
      <stop offset="100%" style="stop-color:#1976D2"/>
    </linearGradient>
  </defs>
  <circle cx="8" cy="8" r="7" fill="url(#cloudGrad)" stroke="#0D47A1" stroke-width="0.5"/>
  <!-- Cloud shape -->
  <path d="M12 9.5c0 1.1-0.9 2-2 2H5.5c-1.4 0-2.5-1.1-2.5-2.5 0-1.3 1-2.4 2.3-2.5 0.3-1.4 1.5-2.5 3-2.5 1.4 0 2.6 0.9 3 2.2 0.1 0 0.2 0 0.2 0 1.1 0 2 0.9 2 2 0 0.3 0 0.5-0.1 0.8" fill="none" stroke="white" stroke-width="1.2" stroke-linecap="round" stroke-linejoin="round"/>
</svg>
